<svg class="main-svg" xmlns="http://www.w3.org/2000/svg" xmlns:xlink="http://www.w3.org/1999/xlink" width="700" height="500" style="" viewBox="0 0 700 500"><rect x="0" y="0" width="700" height="500" style="fill: rgb(255, 255, 255); fill-opacity: 1;"/><defs id="defs-8b70c0"><g class="clips"><clipPath id="clip8b70c0xyplot" class="plotclip"><rect width="446" height="360"/></clipPath><clipPath class="axesclip" id="clip8b70c0x"><rect x="80" y="0" width="446" height="500"/></clipPath><clipPath class="axesclip" id="clip8b70c0y"><rect x="0" y="60" width="700" height="360"/></clipPath><clipPath class="axesclip" id="clip8b70c0xy"><rect x="80" y="60" width="446" height="360"/></clipPath></g><g class="gradients"/><g class="patterns"/></defs><g class="bglayer"><rect class="bg" x="80" y="60" width="446" height="360" style="fill: rgb(255, 255, 255); fill-opacity: 1; stroke-width: 0;"/></g><g class="layer-below"><g class="imagelayer"/><g class="shapelayer"/></g><g class="cartesianlayer"><g class="subplot xy"><g class="layer-subplot"><g class="shapelayer"/><g class="imagelayer"/></g><g class="minor-gridlayer"><g class="x"/><g class="y"/></g><g class="gridlayer"><g class="x"><path class="xgrid crisp" transform="translate(154.32999999999998,0)" d="M0,60v360" style="stroke: rgb(255, 255, 255); stroke-opacity: 1; stroke-width: 1px;"/><path class="xgrid crisp" transform="translate(228.67,0)" d="M0,60v360" style="stroke: rgb(255, 255, 255); stroke-opacity: 1; stroke-width: 1px;"/><path class="xgrid crisp" transform="translate(303,0)" d="M0,60v360" style="stroke: rgb(255, 255, 255); stroke-opacity: 1; stroke-width: 1px;"/><path class="xgrid crisp" transform="translate(377.33,0)" d="M0,60v360" style="stroke: rgb(255, 255, 255); stroke-opacity: 1; stroke-width: 1px;"/><path class="xgrid crisp" transform="translate(451.67,0)" d="M0,60v360" style="stroke: rgb(255, 255, 255); stroke-opacity: 1; stroke-width: 1px;"/></g><g class="y"><path class="ygrid crisp" transform="translate(0,276)" d="M80,0h446" style="stroke: rgb(255, 255, 255); stroke-opacity: 1; stroke-width: 1px;"/><path class="ygrid crisp" transform="translate(0,204)" d="M80,0h446" style="stroke: rgb(255, 255, 255); stroke-opacity: 1; stroke-width: 1px;"/><path class="ygrid crisp" transform="translate(0,132)" d="M80,0h446" style="stroke: rgb(255, 255, 255); stroke-opacity: 1; stroke-width: 1px;"/></g></g><g class="zerolinelayer"><path class="yzl zl crisp" transform="translate(0,348)" d="M80,0h446" style="stroke: rgb(255, 255, 255); stroke-opacity: 1; stroke-width: 2px;"/></g><path class="xlines-below"/><path class="ylines-below"/><g class="overlines-below"/><g class="xaxislayer-below"/><g class="yaxislayer-below"/><g class="overaxes-below"/><g class="plot" transform="translate(80,60)" clip-path="url(#clip8b70c0xyplot)"><g class="scatterlayer mlayer"><g class="trace scatter tracea0b36a" style="stroke-miterlimit: 2; opacity: 1;"><g class="fills"/><g class="errorbars"/><g class="lines"/><g class="points"/><g class="text"/></g><g class="trace scatter trace39b57e" style="stroke-miterlimit: 2; opacity: 1;"><g class="fills"/><g class="errorbars"/><g class="lines"/><g class="points"/><g class="text"/></g><g class="trace scatter trace77052d" style="stroke-miterlimit: 2; opacity: 1;"><g class="fills"/><g class="errorbars"/><g class="lines"/><g class="points"/><g class="text"/></g><g class="trace scatter traced69b28" style="stroke-miterlimit: 2; opacity: 1;"><g class="fills"/><g class="errorbars"/><g class="lines"/><g class="points"/><g class="text"/></g><g class="trace scatter trace6bd63e" style="stroke-miterlimit: 2; opacity: 1;"><g class="fills"/><g class="errorbars"/><g class="lines"/><g class="points"/><g class="text"/></g><g class="trace scatter trace5db1a5" style="stroke-miterlimit: 2; opacity: 1;"><g class="fills"/><g class="errorbars"/><g class="lines"/><g class="points"/><g class="text"/></g><g class="trace scatter trace48e46d" style="stroke-miterlimit: 2; opacity: 1;"><g class="fills"/><g class="errorbars"/><g class="lines"/><g class="points"/><g class="text"/></g></g></g><g class="overplot"/><path class="xlines-above crisp" d="M0,0" style="fill: none;"/><path class="ylines-above crisp" d="M0,0" style="fill: none;"/><g class="overlines-above"/><g class="xaxislayer-above"><g class="xtick"><text text-anchor="middle" x="0" y="433" transform="translate(80,0)" style="font-family: 'Open Sans', verdana, arial, sans-serif; font-size: 12px; fill: rgb(0, 0, 0); fill-opacity: 0; white-space: pre; opacity: 1;">1</text></g><g class="xtick"><text text-anchor="middle" x="0" y="433" style="font-family: 'Open Sans', verdana, arial, sans-serif; font-size: 12px; fill: rgb(0, 0, 0); fill-opacity: 0; white-space: pre; opacity: 1;" transform="translate(154.32999999999998,0)">1.5</text></g><g class="xtick"><text text-anchor="middle" x="0" y="433" style="font-family: 'Open Sans', verdana, arial, sans-serif; font-size: 12px; fill: rgb(0, 0, 0); fill-opacity: 0; white-space: pre; opacity: 1;" transform="translate(228.67,0)">2</text></g><g class="xtick"><text text-anchor="middle" x="0" y="433" style="font-family: 'Open Sans', verdana, arial, sans-serif; font-size: 12px; fill: rgb(0, 0, 0); fill-opacity: 0; white-space: pre; opacity: 1;" transform="translate(303,0)">2.5</text></g><g class="xtick"><text text-anchor="middle" x="0" y="433" style="font-family: 'Open Sans', verdana, arial, sans-serif; font-size: 12px; fill: rgb(0, 0, 0); fill-opacity: 0; white-space: pre; opacity: 1;" transform="translate(377.33,0)">3</text></g><g class="xtick"><text text-anchor="middle" x="0" y="433" style="font-family: 'Open Sans', verdana, arial, sans-serif; font-size: 12px; fill: rgb(0, 0, 0); fill-opacity: 0; white-space: pre; opacity: 1;" transform="translate(451.67,0)">3.5</text></g><g class="xtick"><text text-anchor="middle" x="0" y="433" style="font-family: 'Open Sans', verdana, arial, sans-serif; font-size: 12px; fill: rgb(0, 0, 0); fill-opacity: 0; white-space: pre; opacity: 1;" transform="translate(526,0)">4</text></g></g><g class="yaxislayer-above"><g class="ytick"><text text-anchor="end" x="79" y="4.199999999999999" transform="translate(0,420)" style="font-family: 'Open Sans', verdana, arial, sans-serif; font-size: 12px; fill: rgb(0, 0, 0); fill-opacity: 0; white-space: pre; opacity: 1;">−1</text></g><g class="ytick"><text text-anchor="end" x="79" y="4.199999999999999" style="font-family: 'Open Sans', verdana, arial, sans-serif; font-size: 12px; fill: rgb(0, 0, 0); fill-opacity: 0; white-space: pre; opacity: 1;" transform="translate(0,348)">0</text></g><g class="ytick"><text text-anchor="end" x="79" y="4.199999999999999" style="font-family: 'Open Sans', verdana, arial, sans-serif; font-size: 12px; fill: rgb(0, 0, 0); fill-opacity: 0; white-space: pre; opacity: 1;" transform="translate(0,276)">1</text></g><g class="ytick"><text text-anchor="end" x="79" y="4.199999999999999" style="font-family: 'Open Sans', verdana, arial, sans-serif; font-size: 12px; fill: rgb(0, 0, 0); fill-opacity: 0; white-space: pre; opacity: 1;" transform="translate(0,204)">2</text></g><g class="ytick"><text text-anchor="end" x="79" y="4.199999999999999" style="font-family: 'Open Sans', verdana, arial, sans-serif; font-size: 12px; fill: rgb(0, 0, 0); fill-opacity: 0; white-space: pre; opacity: 1;" transform="translate(0,132)">3</text></g><g class="ytick"><text text-anchor="end" x="79" y="4.199999999999999" style="font-family: 'Open Sans', verdana, arial, sans-serif; font-size: 12px; fill: rgb(0, 0, 0); fill-opacity: 0; white-space: pre; opacity: 1;" transform="translate(0,60)">4</text></g></g><g class="overaxes-above"/></g></g><g class="polarlayer"/><g class="smithlayer"/><g class="ternarylayer"/><g class="geolayer"/><g class="funnelarealayer"/><g class="pielayer"/><g class="iciclelayer"/><g class="treemaplayer"/><g class="sunburstlayer"><g class="trace sunburst" stroke-linejoin="round" style="opacity: 1;"><g class="slice"><path class="surface" d="M303,240A0,0 0,1,0 303,240A0,0 0,1,0 303,240ZM348,240A45,45 0,1,1 258,240A45,45 0,1,1 348,240Z" style="pointer-events: all; stroke-width: 1; fill: rgb(0, 0, 0); fill-opacity: 0; stroke: rgb(255, 255, 255); stroke-opacity: 1;"/><g class="slicetext"><text data-notex="1" class="slicetext" text-anchor="middle" x="0" y="0" style="font-family: 'Open Sans', verdana, arial, sans-serif; font-size: 12px; fill: rgb(42, 63, 95); fill-opacity: 1; white-space: pre;" transform="translate(302.84375,244)">LC schema</text></g></g><g class="slice"><path class="surface" d="M348,240L393,240A90,90 0,0,0 391.27067523629074,222.44187101854845L347.1353376181454,231.22093550927423A45,45 0,0,1 348,240Z" style="pointer-events: all; stroke-width: 1; fill: rgb(204, 204, 204); fill-opacity: 1; stroke: rgb(255, 255, 255); stroke-opacity: 1; opacity: 1;"/><g class="slicetext"><text data-notex="1" class="slicetext" text-anchor="middle" x="0" y="0" style="font-family: 'Open Sans', verdana, arial, sans-serif; font-size: 12px; fill: rgb(68, 68, 68); fill-opacity: 1; white-space: pre;" transform="translate(384.57124521172324,235.965933585506)">I</text></g></g><g class="slice cursor-pointer"><path class="surface" d="M347.1353376181454,231.22093550927423L391.27067523629074,222.44187101854845A90,90 0,0,0 303,150L303,195A45,45 0,0,1 347.1353376181454,231.22093550927423Z" style="pointer-events: all; stroke-width: 1; fill: rgb(56, 21, 55); fill-opacity: 1; stroke: rgb(255, 255, 255); stroke-opacity: 1;"/><g class="slicetext"><text data-notex="1" class="slicetext" text-anchor="middle" x="0" y="0" style="font-family: 'Open Sans', verdana, arial, sans-serif; font-size: 12px; fill: rgb(255, 255, 255); fill-opacity: 1; white-space: pre;" transform="translate(345.6574841810461,191.82179439801524)">C</text></g></g><g class="slice cursor-pointer"><path class="surface" d="M303,195L303,150A90,90 0,0,0 214.72932476370926,257.55812898145155L258.8646623818546,248.77906449072577A45,45 0,0,1 303,195Z" style="pointer-events: all; stroke-width: 1; fill: rgb(56, 21, 55); fill-opacity: 1; stroke: rgb(255, 255, 255); stroke-opacity: 1;"/><g class="slicetext"><text data-notex="1" class="slicetext" text-anchor="middle" x="0" y="0" style="font-family: 'Open Sans', verdana, arial, sans-serif; font-size: 12px; fill: rgb(255, 255, 255); fill-opacity: 1; white-space: pre;" transform="translate(250.65773189801524,201.17845331895393)">D</text></g></g><g class="slice cursor-pointer"><path class="surface" d="M258.8646623818546,248.77906449072577L214.72932476370926,257.55812898145155A90,90 0,0,0 239.36038969321072,303.6396103067893L271.18019484660533,271.8198051533946A45,45 0,0,1 258.8646623818546,248.77906449072577Z" style="pointer-events: all; stroke-width: 1; fill: rgb(56, 21, 55); fill-opacity: 1; stroke: rgb(255, 255, 255); stroke-opacity: 1;"/><g class="slicetext"><text data-notex="1" class="slicetext" text-anchor="middle" x="0" y="0" style="font-family: 'Open Sans', verdana, arial, sans-serif; font-size: 12px; fill: rgb(255, 255, 255); fill-opacity: 1; white-space: pre;" transform="translate(241.48418477676884,276.8808882739083)">E</text></g></g><g class="slice cursor-pointer"><path class="surface" d="M271.18019484660533,271.8198051533946L239.36038969321072,303.6396103067893A90,90 0,0,0 285.4418710185484,328.27067523629074L294.2209355092742,284.13533761814534A45,45 0,0,1 271.18019484660533,271.8198051533946Z" style="pointer-events: all; stroke-width: 1; fill: rgb(204, 204, 204); fill-opacity: 1; stroke: rgb(255, 255, 255); stroke-opacity: 1;"/><g class="slicetext"><text data-notex="1" class="slicetext" text-anchor="middle" x="0" y="0" style="font-family: 'Open Sans', verdana, arial, sans-serif; font-size: 12px; fill: rgb(68, 68, 68); fill-opacity: 1; white-space: pre;" transform="translate(270.1191117260917,305.51581522323113)">F</text></g></g><g class="slice cursor-pointer"><path class="surface" d="M294.2209355092742,284.13533761814534L285.4418710185484,328.27067523629074A90,90 0,0,0 303,330L303,285A45,45 0,0,1 294.2209355092742,284.13533761814534Z" style="pointer-events: all; stroke-width: 1; fill: rgb(204, 204, 204); fill-opacity: 1; stroke: rgb(255, 255, 255); stroke-opacity: 1;"/><g class="slicetext"><text data-notex="1" class="slicetext" text-anchor="middle" x="0" y="0" style="font-family: 'Open Sans', verdana, arial, sans-serif; font-size: 12px; fill: rgb(68, 68, 68); fill-opacity: 1; white-space: pre;" transform="translate(294.8139994575351,323.1138583007047)rotate(5.625)">G</text></g></g><g class="slice cursor-pointer"><path class="surface" d="M303,285L303,330A90,90 0,0,0 393,240.00000000000003L348,240A45,45 0,0,1 303,285Z" style="pointer-events: all; stroke-width: 1; fill: rgb(204, 204, 204); fill-opacity: 1; stroke: rgb(255, 255, 255); stroke-opacity: 1;"/><g class="slicetext"><text data-notex="1" class="slicetext" text-anchor="middle" x="0" y="0" style="font-family: 'Open Sans', verdana, arial, sans-serif; font-size: 12px; fill: rgb(68, 68, 68); fill-opacity: 1; white-space: pre;" transform="translate(350.72970773009195,291.72970773009195)">H</text></g></g><g class="slice"><path class="surface" d="M391.27067523629074,222.44187101854845L435.4060128544361,213.66280652782268A135,135 0,0,0 427.7237368890237,188.33773663071287L386.1491579260158,205.55849108714193A90,90 0,0,1 391.27067523629074,222.44187101854845Z" style="pointer-events: all; stroke-width: 1; fill: rgb(14, 130, 18); fill-opacity: 1; stroke: rgb(255, 255, 255); stroke-opacity: 1; opacity: 1;"/><g class="slicetext"><text data-notex="1" class="slicetext" text-anchor="middle" x="0" y="0" style="font-family: 'Open Sans', verdana, arial, sans-serif; font-size: 12px; fill: rgb(255, 255, 255); fill-opacity: 1; white-space: pre;" transform="translate(420.49069950587705,208.30981813490604)">C1</text></g></g><g class="slice"><path class="surface" d="M386.1491579260158,205.55849108714193L427.7237368890237,188.33773663071287A135,135 0,0,0 415.2483976608436,164.9980185423537L377.8322651072291,189.9986790282358A90,90 0,0,1 386.1491579260158,205.55849108714193Z" style="pointer-events: all; stroke-width: 1; fill: rgb(14, 130, 18); fill-opacity: 1; stroke: rgb(255, 255, 255); stroke-opacity: 1; opacity: 1;"/><g class="slicetext"><text data-notex="1" class="slicetext" text-anchor="middle" x="0" y="0" style="font-family: 'Open Sans', verdana, arial, sans-serif; font-size: 12px; fill: rgb(255, 255, 255); fill-opacity: 1; white-space: pre;" transform="translate(411.26718717183417,186.04228956534402)">C2</text></g></g><g class="slice"><path class="surface" d="M377.8322651072291,189.9986790282358L415.2483976608436,164.9980185423537A135,135 0,0,0 398.4594154601839,144.5405845398161L366.6396103067893,176.36038969321072A90,90 0,0,1 377.8322651072291,189.9986790282358Z" style="pointer-events: all; stroke-width: 1; fill: rgb(14, 130, 18); fill-opacity: 1; stroke: rgb(255, 255, 255); stroke-opacity: 1; opacity: 1;"/><g class="slicetext"><text data-notex="1" class="slicetext" text-anchor="middle" x="0" y="0" style="font-family: 'Open Sans', verdana, arial, sans-serif; font-size: 12px; fill: rgb(255, 255, 255); fill-opacity: 1; white-space: pre;" transform="translate(397.87672272184795,166.00204330472738)">C3</text></g></g><g class="slice cursor-pointer"><path class="surface" d="M366.6396103067893,176.36038969321072L398.4594154601839,144.5405845398161A135,135 0,0,0 329.3371934721773,107.59398714556389L320.55812898145155,151.72932476370926A90,90 0,0,1 366.6396103067893,176.36038969321072Z" style="pointer-events: all; stroke-width: 1; fill: rgb(14, 130, 18); fill-opacity: 1; stroke: rgb(255, 255, 255); stroke-opacity: 1;"/><g class="slicetext"><text data-notex="1" class="slicetext" text-anchor="middle" x="0" y="0" style="font-family: 'Open Sans', verdana, arial, sans-serif; font-size: 12px; fill: rgb(255, 255, 255); fill-opacity: 1; white-space: pre;" transform="translate(355.8680703929247,144.78385776081006)">C4</text></g></g><g class="slice"><path class="surface" d="M320.55812898145155,151.72932476370926L329.3371934721773,107.59398714556389A135,135 0,0,0 303,105L303,150A90,90 0,0,1 320.55812898145155,151.72932476370926Z" style="pointer-events: all; stroke-width: 1; fill: rgb(14, 130, 18); fill-opacity: 1; stroke: rgb(255, 255, 255); stroke-opacity: 1; opacity: 1;"/><g class="slicetext"><text data-notex="1" class="slicetext" text-anchor="middle" x="0" y="0" style="font-family: 'Open Sans', verdana, arial, sans-serif; font-size: 12px; fill: rgb(255, 255, 255); fill-opacity: 1; white-space: pre;" transform="translate(314.887037121741,121.64313218241513)">C5</text></g></g><g class="slice"><path class="surface" d="M303,150L303,105A135,135 0,0,0 276.6628065278227,107.59398714556389L285.44187101854845,151.72932476370926A90,90 0,0,1 303,150Z" style="pointer-events: all; stroke-width: 1; fill: rgb(163, 59, 26); fill-opacity: 1; stroke: rgb(255, 255, 255); stroke-opacity: 1; opacity: 1;"/><g class="slicetext"><text data-notex="1" class="slicetext" text-anchor="middle" x="0" y="0" style="font-family: 'Open Sans', verdana, arial, sans-serif; font-size: 12px; fill: rgb(255, 255, 255); fill-opacity: 1; white-space: pre;" transform="translate(290.784837878259,121.64313218241513)">D1</text></g></g><g class="slice cursor-pointer"><path class="surface" d="M285.44187101854845,151.72932476370926L276.6628065278227,107.59398714556389A135,135 0,0,0 227.9980185423537,127.7516023391564L252.99867902823578,165.16773489277094A90,90 0,0,1 285.44187101854845,151.72932476370926Z" style="pointer-events: all; stroke-width: 1; fill: rgb(163, 59, 26); fill-opacity: 1; stroke: rgb(255, 255, 255); stroke-opacity: 1;"/><g class="slicetext"><text data-notex="1" class="slicetext" text-anchor="middle" x="0" y="0" style="font-family: 'Open Sans', verdana, arial, sans-serif; font-size: 12px; fill: rgb(255, 255, 255); fill-opacity: 1; white-space: pre;" transform="translate(259.60718531486606,139.6365601901841)">D2</text></g></g><g class="slice"><path class="surface" d="M252.99867902823578,165.16773489277094L227.9980185423537,127.7516023391564A135,135 0,0,0 207.54058453981605,144.5405845398161L239.3603896932107,176.36038969321075A90,90 0,0,1 252.99867902823578,165.16773489277094Z" style="pointer-events: all; stroke-width: 1; fill: rgb(163, 59, 26); fill-opacity: 1; stroke: rgb(255, 255, 255); stroke-opacity: 1; opacity: 1;"/><g class="slicetext"><text data-notex="1" class="slicetext" text-anchor="middle" x="0" y="0" style="font-family: 'Open Sans', verdana, arial, sans-serif; font-size: 12px; fill: rgb(255, 255, 255); fill-opacity: 1; white-space: pre;" transform="translate(224.83798080472735,148.95921477815205)">D3</text></g></g><g class="slice cursor-pointer"><path class="surface" d="M239.3603896932107,176.36038969321075L207.54058453981605,144.5405845398161A135,135 0,0,0 170.5939871455639,213.66280652782277L214.72932476370926,222.4418710185485A90,90 0,0,1 239.3603896932107,176.36038969321075Z" style="pointer-events: all; stroke-width: 1; fill: rgb(163, 59, 26); fill-opacity: 1; stroke: rgb(255, 255, 255); stroke-opacity: 1;"/><g class="slicetext"><text data-notex="1" class="slicetext" text-anchor="middle" x="0" y="0" style="font-family: 'Open Sans', verdana, arial, sans-serif; font-size: 12px; fill: rgb(255, 255, 255); fill-opacity: 1; white-space: pre;" transform="translate(203.61979526081004,190.96786710707534)">D6</text></g></g><g class="slice cursor-pointer"><path class="surface" d="M214.72932476370926,222.4418710185485L170.5939871455639,213.66280652782277A135,135 0,0,0 170.59398714556391,266.3371934721774L214.72932476370926,257.5581289814516A90,90 0,0,1 214.72932476370926,222.4418710185485Z" style="pointer-events: all; stroke-width: 1; fill: rgb(204, 204, 204); fill-opacity: 1; stroke: rgb(255, 255, 255); stroke-opacity: 1;"/><g class="slicetext"><text data-notex="1" class="slicetext" text-anchor="middle" x="0" y="0" style="font-family: 'Open Sans', verdana, arial, sans-serif; font-size: 12px; fill: rgb(68, 68, 68); fill-opacity: 1; white-space: pre;" transform="translate(189.87376425417054,244.00000000000006)">D7</text></g></g><g class="slice"><path class="surface" d="M214.72932476370926,257.55812898145155L170.5939871455639,266.3371934721773A135,135 0,0,0 178.2762631109763,291.6622633692871L219.85084207398418,274.44150891285807A90,90 0,0,1 214.72932476370926,257.55812898145155Z" style="pointer-events: all; stroke-width: 1; fill: rgb(204, 204, 204); fill-opacity: 1; stroke: rgb(255, 255, 255); stroke-opacity: 1; opacity: 1;"/><g class="slicetext"><text data-notex="1" class="slicetext" text-anchor="middle" x="0" y="0" style="font-family: 'Open Sans', verdana, arial, sans-serif; font-size: 12px; fill: rgb(68, 68, 68); fill-opacity: 1; white-space: pre;" transform="translate(185.1811754941229,279.69018186509396)">E1</text></g></g><g class="slice cursor-pointer"><path class="surface" d="M219.85084207398418,274.44150891285807L178.2762631109763,291.6622633692871A135,135 0,0,0 207.54058453981605,335.4594154601839L239.36038969321072,303.6396103067893A90,90 0,0,1 219.85084207398418,274.44150891285807Z" style="pointer-events: all; stroke-width: 1; fill: rgb(204, 204, 204); fill-opacity: 1; stroke: rgb(255, 255, 255); stroke-opacity: 1;"/><g class="slicetext"><text data-notex="1" class="slicetext" text-anchor="middle" x="0" y="0" style="font-family: 'Open Sans', verdana, arial, sans-serif; font-size: 12px; fill: rgb(68, 68, 68); fill-opacity: 1; white-space: pre;" transform="translate(208.91132310643724,306.75842091258613)">E2</text></g></g><g class="slice"><path class="surface" d="M239.36038969321072,303.6396103067893L207.54058453981605,335.4594154601839A135,135 0,0,0 227.9980185423537,352.2483976608436L252.9986790282358,314.8322651072291A90,90 0,0,1 239.36038969321072,303.6396103067893Z" style="pointer-events: all; stroke-width: 1; fill: rgb(204, 238, 170); fill-opacity: 1; stroke: rgb(255, 255, 255); stroke-opacity: 1; opacity: 1;"/><g class="slicetext"><text data-notex="1" class="slicetext" text-anchor="middle" x="0" y="0" style="font-family: 'Open Sans', verdana, arial, sans-serif; font-size: 12px; fill: rgb(68, 68, 68); fill-opacity: 1; white-space: pre;" transform="translate(224.8457933047274,339.04078522184795)">F2</text></g></g><g class="slice cursor-pointer"><path class="surface" d="M252.9986790282358,314.8322651072291L227.9980185423537,352.2483976608436A135,135 0,0,0 276.6628065278226,372.4060128544361L285.4418710185484,328.27067523629074A90,90 0,0,1 252.9986790282358,314.8322651072291Z" style="pointer-events: all; stroke-width: 1; fill: rgb(204, 204, 204); fill-opacity: 1; stroke: rgb(255, 255, 255); stroke-opacity: 1;"/><g class="slicetext"><text data-notex="1" class="slicetext" text-anchor="middle" x="0" y="0" style="font-family: 'Open Sans', verdana, arial, sans-serif; font-size: 12px; fill: rgb(68, 68, 68); fill-opacity: 1; white-space: pre;" transform="translate(259.61499781486606,348.36343980981593)">F3</text></g></g><g class="slice cursor-pointer"><path class="surface" d="M285.4418710185484,328.27067523629074L276.6628065278226,372.4060128544361A135,135 0,0,0 303,375L303,330A90,90 0,0,1 285.4418710185484,328.27067523629074Z" style="pointer-events: all; stroke-width: 1; fill: rgb(204, 204, 204); fill-opacity: 1; stroke: rgb(255, 255, 255); stroke-opacity: 1;"/><g class="slicetext"><text data-notex="1" class="slicetext" text-anchor="middle" x="0" y="0" style="font-family: 'Open Sans', verdana, arial, sans-serif; font-size: 12px; fill: rgb(68, 68, 68); fill-opacity: 1; white-space: pre;" transform="translate(290.784837878259,366.3568678175849)">G2</text></g></g><g class="slice cursor-pointer"><path class="surface" d="M303,330L303,375A135,135 0,0,0 398.4594154601839,335.45941546018395L366.6396103067893,303.6396103067893A90,90 0,0,1 303,330Z" style="pointer-events: all; stroke-width: 1; fill: rgb(204, 204, 204); fill-opacity: 1; stroke: rgb(255, 255, 255); stroke-opacity: 1;"/><g class="slicetext"><text data-notex="1" class="slicetext" text-anchor="middle" x="0" y="0" style="font-family: 'Open Sans', verdana, arial, sans-serif; font-size: 12px; fill: rgb(68, 68, 68); fill-opacity: 1; white-space: pre;" transform="translate(345.8878236410726,347.9364474075198)">H1</text></g></g><g class="slice cursor-pointer"><path class="surface" d="M366.6396103067893,303.6396103067893L398.4594154601839,335.45941546018395A135,135 0,0,0 427.7237368890237,291.6622633692872L386.1491579260158,274.4415089128581A90,90 0,0,1 366.6396103067893,303.6396103067893Z" style="pointer-events: all; stroke-width: 1; fill: rgb(204, 204, 204); fill-opacity: 1; stroke: rgb(255, 255, 255); stroke-opacity: 1;"/><g class="slicetext"><text data-notex="1" class="slicetext" text-anchor="middle" x="0" y="0" style="font-family: 'Open Sans', verdana, arial, sans-serif; font-size: 12px; fill: rgb(68, 68, 68); fill-opacity: 1; white-space: pre;" transform="translate(396.76055189356276,306.75842091258613)">H2</text></g></g><g class="slice cursor-pointer"><path class="surface" d="M386.1491579260158,274.4415089128581L427.7237368890237,291.6622633692872A135,135 0,0,0 438,240.00000000000003L393,240.00000000000003A90,90 0,0,1 386.1491579260158,274.4415089128581Z" style="pointer-events: all; stroke-width: 1; fill: rgb(204, 204, 204); fill-opacity: 1; stroke: rgb(255, 255, 255); stroke-opacity: 1;"/><g class="slicetext"><text data-notex="1" class="slicetext" text-anchor="middle" x="0" y="0" style="font-family: 'Open Sans', verdana, arial, sans-serif; font-size: 12px; fill: rgb(68, 68, 68); fill-opacity: 1; white-space: pre;" transform="translate(413.6275742618691,266.03782675417057)">H3</text></g></g><g class="slice"><path class="surface" d="M398.4594154601839,144.5405845398161L430.27922061357856,112.72077938642146A180,180 0,0,0 403.00264194352843,90.33546978554185L378.0019814576463,127.75160233915639A135,135 0,0,1 398.4594154601839,144.5405845398161Z" style="pointer-events: all; stroke-width: 1; fill: rgb(51, 51, 51); fill-opacity: 1; stroke: rgb(255, 255, 255); stroke-opacity: 1; opacity: 1;"/><g class="slicetext"><text data-notex="1" class="slicetext" text-anchor="middle" x="0" y="0" style="font-family: 'Open Sans', verdana, arial, sans-serif; font-size: 12px; fill: rgb(255, 255, 255); fill-opacity: 1; white-space: pre;" transform="translate(406.8332130936968,117.27895303753601)">C4a</text></g></g><g class="slice"><path class="surface" d="M378.0019814576463,127.75160233915639L403.00264194352843,90.33546978554185A180,180 0,0,0 371.88301782571614,73.7016841479684L354.66226336928713,115.27626311097629A135,135 0,0,1 378.0019814576463,127.75160233915639Z" style="pointer-events: all; stroke-width: 1; fill: rgb(51, 51, 51); fill-opacity: 1; stroke: rgb(255, 255, 255); stroke-opacity: 1; opacity: 1;"/><g class="slicetext"><text data-notex="1" class="slicetext" text-anchor="middle" x="0" y="0" style="font-family: 'Open Sans', verdana, arial, sans-serif; font-size: 12px; fill: rgb(255, 255, 255); fill-opacity: 1; white-space: pre;" transform="translate(380.11288474620795,99.4250004375545)">C4b</text></g></g><g class="slice"><path class="surface" d="M354.66226336928713,115.27626311097629L371.88301782571614,73.7016841479684A180,180 0,0,0 338.1162579629031,63.458649527418515L329.3371934721773,107.59398714556389A135,135 0,0,1 354.66226336928713,115.27626311097629Z" style="pointer-events: all; stroke-width: 1; fill: rgb(51, 51, 51); fill-opacity: 1; stroke: rgb(255, 255, 255); stroke-opacity: 1; opacity: 1;"/><g class="slicetext"><text data-notex="1" class="slicetext" text-anchor="middle" x="0" y="0" style="font-family: 'Open Sans', verdana, arial, sans-serif; font-size: 12px; fill: rgb(255, 255, 255); fill-opacity: 1; white-space: pre;" transform="translate(350.58690915345863,87.1269839921639)">C4c</text></g></g><g class="slice"><path class="surface" d="M276.6628065278227,107.59398714556389L267.8837420370969,63.458649527418515A180,180 0,0,0 234.11698217428386,73.7016841479684L251.3377366307129,115.27626311097629A135,135 0,0,1 276.6628065278227,107.59398714556389Z" style="pointer-events: all; stroke-width: 1; fill: rgb(51, 51, 51); fill-opacity: 1; stroke: rgb(255, 255, 255); stroke-opacity: 1; opacity: 1;"/><g class="slicetext"><text data-notex="1" class="slicetext" text-anchor="middle" x="0" y="0" style="font-family: 'Open Sans', verdana, arial, sans-serif; font-size: 12px; fill: rgb(255, 255, 255); fill-opacity: 1; white-space: pre;" transform="translate(255.2490283465414,87.1269839921639)">D2b</text></g></g><g class="slice"><path class="surface" d="M251.3377366307129,115.27626311097629L234.11698217428386,73.7016841479684A180,180 0,0,0 202.99735805647157,90.33546978554187L227.9980185423537,127.7516023391564A135,135 0,0,1 251.3377366307129,115.27626311097629Z" style="pointer-events: all; stroke-width: 1; fill: rgb(51, 51, 51); fill-opacity: 1; stroke: rgb(255, 255, 255); stroke-opacity: 1; opacity: 1;"/><g class="slicetext"><text data-notex="1" class="slicetext" text-anchor="middle" x="0" y="0" style="font-family: 'Open Sans', verdana, arial, sans-serif; font-size: 12px; fill: rgb(255, 255, 255); fill-opacity: 1; white-space: pre;" transform="translate(225.72305275379205,99.4250004375545)">D2d</text></g></g><g class="slice"><path class="surface" d="M207.54058453981605,144.5405845398161L175.72077938642138,112.7207793864215A180,180 0,0,0 153.3354697855418,139.99735805647168L190.75160233915636,164.99801854235375A135,135 0,0,1 207.54058453981605,144.5405845398161Z" style="pointer-events: all; stroke-width: 1; fill: rgb(51, 51, 51); fill-opacity: 1; stroke: rgb(255, 255, 255); stroke-opacity: 1; opacity: 1;"/><g class="slicetext"><text data-notex="1" class="slicetext" text-anchor="middle" x="0" y="0" style="font-family: 'Open Sans', verdana, arial, sans-serif; font-size: 12px; fill: rgb(255, 255, 255); fill-opacity: 1; white-space: pre;" transform="translate(176.11489053753598,140.0027244063033)">D6a</text></g></g><g class="slice"><path class="surface" d="M190.75160233915636,164.99801854235375L153.3354697855418,139.99735805647168A180,180 0,0,0 136.70168414796834,171.11698217428398L178.27626311097623,188.33773663071298A135,135 0,0,1 190.75160233915636,164.99801854235375Z" style="pointer-events: all; stroke-width: 1; fill: rgb(51, 51, 51); fill-opacity: 1; stroke: rgb(255, 255, 255); stroke-opacity: 1; opacity: 1;"/><g class="slicetext"><text data-notex="1" class="slicetext" text-anchor="middle" x="0" y="0" style="font-family: 'Open Sans', verdana, arial, sans-serif; font-size: 12px; fill: rgb(255, 255, 255); fill-opacity: 1; white-space: pre;" transform="translate(158.26093793755444,166.72305275379216)">D6b</text></g></g><g class="slice"><path class="surface" d="M178.27626311097623,188.33773663071298L136.70168414796834,171.11698217428398A180,180 0,0,0 126.45864952741849,204.88374203709708L170.59398714556386,213.66280652782282A135,135 0,0,1 178.27626311097623,188.33773663071298Z" style="pointer-events: all; stroke-width: 1; fill: rgb(51, 51, 51); fill-opacity: 1; stroke: rgb(255, 255, 255); stroke-opacity: 1; opacity: 1;"/><g class="slicetext"><text data-notex="1" class="slicetext" text-anchor="middle" x="0" y="0" style="font-family: 'Open Sans', verdana, arial, sans-serif; font-size: 12px; fill: rgb(255, 255, 255); fill-opacity: 1; white-space: pre;" transform="translate(146.12698399216387,196.41309084654154)">D6c</text></g></g><g class="slice"><path class="surface" d="M170.5939871455639,213.66280652782277L126.45864952741852,204.88374203709702A180,180 0,0,0 123,240.00000000000014L168,240.0000000000001A135,135 0,0,1 170.5939871455639,213.66280652782277Z" style="pointer-events: all; stroke-width: 1; fill: rgb(163, 59, 26); fill-opacity: 1; stroke: rgb(255, 255, 255); stroke-opacity: 1; opacity: 1;"/><g class="slicetext"><text data-notex="1" class="slicetext" text-anchor="middle" x="0" y="0" style="font-family: 'Open Sans', verdana, arial, sans-serif; font-size: 12px; fill: rgb(255, 255, 255); fill-opacity: 1; white-space: pre;" transform="translate(139.69344707655353,227.93186717101216)">D7a</text></g></g><g class="slice"><path class="surface" d="M168,240.0000000000001L123,240.00000000000014A180,180 0,0,0 126.45864952741857,275.11625796290326L170.59398714556391,266.33719347217743A135,135 0,0,1 168,240.0000000000001Z" style="pointer-events: all; stroke-width: 1; fill: rgb(163, 59, 26); fill-opacity: 1; stroke: rgb(255, 255, 255); stroke-opacity: 1; opacity: 1;"/><g class="slicetext"><text data-notex="1" class="slicetext" text-anchor="middle" x="0" y="0" style="font-family: 'Open Sans', verdana, arial, sans-serif; font-size: 12px; fill: rgb(255, 255, 255); fill-opacity: 1; white-space: pre;" transform="translate(139.69344707655355,260.06813282898815)">D7b</text></g></g><g class="slice"><path class="surface" d="M178.2762631109763,291.6622633692871L136.70168414796836,308.88301782571614A180,180 0,0,0 153.33546978554182,340.0026419435284L190.75160233915636,315.00198145764625A135,135 0,0,1 178.2762631109763,291.6622633692871Z" style="pointer-events: all; stroke-width: 1; fill: rgb(70, 94, 133); fill-opacity: 1; stroke: rgb(255, 255, 255); stroke-opacity: 1; opacity: 1;"/><g class="slicetext"><text data-notex="1" class="slicetext" text-anchor="middle" x="0" y="0" style="font-family: 'Open Sans', verdana, arial, sans-serif; font-size: 12px; fill: rgb(255, 255, 255); fill-opacity: 1; white-space: pre;" transform="translate(158.26093793755447,321.27694724620795)">E2a</text></g></g><g class="slice"><path class="surface" d="M190.75160233915636,315.00198145764625L153.33546978554182,340.0026419435284A180,180 0,0,0 175.7207793864214,367.27922061357856L207.54058453981605,335.4594154601839A135,135 0,0,1 190.75160233915636,315.00198145764625Z" style="pointer-events: all; stroke-width: 1; fill: rgb(70, 94, 133); fill-opacity: 1; stroke: rgb(255, 255, 255); stroke-opacity: 1; opacity: 1;"/><g class="slicetext"><text data-notex="1" class="slicetext" text-anchor="middle" x="0" y="0" style="font-family: 'Open Sans', verdana, arial, sans-serif; font-size: 12px; fill: rgb(255, 255, 255); fill-opacity: 1; white-space: pre;" transform="translate(176.11489053753604,347.9972755936968)">E2b</text></g></g><g class="slice"><path class="surface" d="M227.9980185423537,352.2483976608436L202.99735805647163,389.6645302144582A180,180 0,0,0 234.11698217428375,406.2983158520316L251.3377366307128,364.7237368890237A135,135 0,0,1 227.9980185423537,352.2483976608436Z" style="pointer-events: all; stroke-width: 1; fill: rgb(70, 94, 133); fill-opacity: 1; stroke: rgb(255, 255, 255); stroke-opacity: 1; opacity: 1;"/><g class="slicetext"><text data-notex="1" class="slicetext" text-anchor="middle" x="0" y="0" style="font-family: 'Open Sans', verdana, arial, sans-serif; font-size: 12px; fill: rgb(255, 255, 255); fill-opacity: 1; white-space: pre;" transform="translate(225.558990253792,388.57499956244556)">F3a</text></g></g><g class="slice"><path class="surface" d="M251.3377366307128,364.7237368890237L234.11698217428375,406.2983158520316A180,180 0,0,0 267.8837420370967,416.5413504725814L276.6628065278225,372.4060128544361A135,135 0,0,1 251.3377366307128,364.7237368890237Z" style="pointer-events: all; stroke-width: 1; fill: rgb(163, 59, 26); fill-opacity: 1; stroke: rgb(255, 255, 255); stroke-opacity: 1; opacity: 1;"/><g class="slicetext"><text data-notex="1" class="slicetext" text-anchor="middle" x="0" y="0" style="font-family: 'Open Sans', verdana, arial, sans-serif; font-size: 12px; fill: rgb(255, 255, 255); fill-opacity: 1; white-space: pre;" transform="translate(255.41309084654122,400.8730160078361)">F3d</text></g></g><g class="slice"><path class="surface" d="M276.6628065278226,372.4060128544361L267.88374203709685,416.5413504725815A180,180 0,0,0 302.99999999999994,420L303,375A135,135 0,0,1 276.6628065278226,372.4060128544361Z" style="pointer-events: all; stroke-width: 1; fill: rgb(204, 238, 170); fill-opacity: 1; stroke: rgb(255, 255, 255); stroke-opacity: 1; opacity: 1;"/><g class="slicetext"><text data-notex="1" class="slicetext" text-anchor="middle" x="0" y="0" style="font-family: 'Open Sans', verdana, arial, sans-serif; font-size: 12px; fill: rgb(68, 68, 68); fill-opacity: 1; white-space: pre;" transform="translate(286.767804671012,407.1424904234465)">G2a</text></g></g><g class="slice"><path class="surface" d="M303,375L302.99999999999994,420A180,180 0,0,0 338.1162579629031,416.5413504725815L329.3371934721773,372.4060128544361A135,135 0,0,1 303,375Z" style="pointer-events: all; stroke-width: 1; fill: rgb(204, 238, 170); fill-opacity: 1; stroke: rgb(255, 255, 255); stroke-opacity: 1; opacity: 1;"/><g class="slicetext"><text data-notex="1" class="slicetext" text-anchor="middle" x="0" y="0" style="font-family: 'Open Sans', verdana, arial, sans-serif; font-size: 12px; fill: rgb(68, 68, 68); fill-opacity: 1; white-space: pre;" transform="translate(318.904070328988,407.1424904234465)">H1a</text></g></g><g class="slice"><path class="surface" d="M329.3371934721773,372.4060128544361L338.1162579629031,416.5413504725815A180,180 0,0,0 371.8830178257162,406.2983158520316L354.66226336928713,364.7237368890237A135,135 0,0,1 329.3371934721773,372.4060128544361Z" style="pointer-events: all; stroke-width: 1; fill: rgb(204, 238, 170); fill-opacity: 1; stroke: rgb(255, 255, 255); stroke-opacity: 1; opacity: 1;"/><g class="slicetext"><text data-notex="1" class="slicetext" text-anchor="middle" x="0" y="0" style="font-family: 'Open Sans', verdana, arial, sans-serif; font-size: 12px; fill: rgb(68, 68, 68); fill-opacity: 1; white-space: pre;" transform="translate(350.42284665345863,400.8730160078361)">H1b</text></g></g><g class="slice"><path class="surface" d="M354.66226336928713,364.7237368890237L371.8830178257162,406.2983158520316A180,180 0,0,0 403.0026419435285,389.66453021445807L378.00198145764637,352.2483976608436A135,135 0,0,1 354.66226336928713,364.7237368890237Z" style="pointer-events: all; stroke-width: 1; fill: rgb(204, 238, 170); fill-opacity: 1; stroke: rgb(255, 255, 255); stroke-opacity: 1; opacity: 1;"/><g class="slicetext"><text data-notex="1" class="slicetext" text-anchor="middle" x="0" y="0" style="font-family: 'Open Sans', verdana, arial, sans-serif; font-size: 12px; fill: rgb(68, 68, 68); fill-opacity: 1; white-space: pre;" transform="translate(380.276947246208,388.57499956244544)">H1c</text></g></g><g class="slice"><path class="surface" d="M378.00198145764637,352.2483976608436L403.0026419435285,389.66453021445807A180,180 0,0,0 430.2792206135787,367.27922061357845L398.459415460184,335.45941546018383A135,135 0,0,1 378.00198145764637,352.2483976608436Z" style="pointer-events: all; stroke-width: 1; fill: rgb(204, 238, 170); fill-opacity: 1; stroke: rgb(255, 255, 255); stroke-opacity: 1; opacity: 1;"/><g class="slicetext"><text data-notex="1" class="slicetext" text-anchor="middle" x="0" y="0" style="font-family: 'Open Sans', verdana, arial, sans-serif; font-size: 12px; fill: rgb(68, 68, 68); fill-opacity: 1; white-space: pre;" transform="translate(406.9972755936969,370.7210469624639)">H1d</text></g></g><g class="slice"><path class="surface" d="M398.4594154601839,335.45941546018395L430.2792206135785,367.27922061357856A180,180 0,0,0 452.6645302144582,340.0026419435284L415.2483976608436,315.0019814576463A135,135 0,0,1 398.4594154601839,335.45941546018395Z" style="pointer-events: all; stroke-width: 1; fill: rgb(204, 238, 170); fill-opacity: 1; stroke: rgb(255, 255, 255); stroke-opacity: 1; opacity: 1;"/><g class="slicetext"><text data-notex="1" class="slicetext" text-anchor="middle" x="0" y="0" style="font-family: 'Open Sans', verdana, arial, sans-serif; font-size: 12px; fill: rgb(68, 68, 68); fill-opacity: 1; white-space: pre;" transform="translate(429.556984462464,347.99727559369677)">H2a</text></g></g><g class="slice"><path class="surface" d="M415.2483976608436,315.0019814576463L452.6645302144582,340.0026419435284A180,180 0,0,0 469.2983158520316,308.88301782571625L427.7237368890237,291.6622633692872A135,135 0,0,1 415.2483976608436,315.0019814576463Z" style="pointer-events: all; stroke-width: 1; fill: rgb(204, 238, 170); fill-opacity: 1; stroke: rgb(255, 255, 255); stroke-opacity: 1; opacity: 1;"/><g class="slicetext"><text data-notex="1" class="slicetext" text-anchor="middle" x="0" y="0" style="font-family: 'Open Sans', verdana, arial, sans-serif; font-size: 12px; fill: rgb(68, 68, 68); fill-opacity: 1; white-space: pre;" transform="translate(447.41093706244556,321.276947246208)">H2b</text></g></g><g class="slice"><path class="surface" d="M427.7237368890237,291.6622633692872L469.2983158520316,308.88301782571625A180,180 0,0,0 479.5413504725815,275.11625796290315L435.4060128544361,266.3371934721774A135,135 0,0,1 427.7237368890237,291.6622633692872Z" style="pointer-events: all; stroke-width: 1; fill: rgb(204, 238, 170); fill-opacity: 1; stroke: rgb(255, 255, 255); stroke-opacity: 1; opacity: 1;"/><g class="slicetext"><text data-notex="1" class="slicetext" text-anchor="middle" x="0" y="0" style="font-family: 'Open Sans', verdana, arial, sans-serif; font-size: 12px; fill: rgb(68, 68, 68); fill-opacity: 1; white-space: pre;" transform="translate(459.70895350783604,291.58690915345875)">H3a</text></g></g><g class="slice"><path class="surface" d="M435.4060128544361,266.3371934721774L479.5413504725815,275.11625796290315A180,180 0,0,0 483,240.00000000000006L438,240.00000000000003A135,135 0,0,1 435.4060128544361,266.3371934721774Z" style="pointer-events: all; stroke-width: 1; fill: rgb(204, 238, 170); fill-opacity: 1; stroke: rgb(255, 255, 255); stroke-opacity: 1; opacity: 1;"/><g class="slicetext"><text data-notex="1" class="slicetext" text-anchor="middle" x="0" y="0" style="font-family: 'Open Sans', verdana, arial, sans-serif; font-size: 12px; fill: rgb(68, 68, 68); fill-opacity: 1; white-space: pre;" transform="translate(465.9784279234465,260.0681328289879)">H3b</text></g></g></g></g><g class="glimages"/><defs id="topdefs-8b70c0"><g class="clips"/><clipPath id="legend8b70c0"><rect width="153" height="143" x="0" y="0"/></clipPath></defs><g class="layer-above"><g class="imagelayer"/><g class="shapelayer"/></g><g class="infolayer"><g class="legend" pointer-events="all" transform="translate(534.9200000000001,60)"><rect class="bg" shape-rendering="crispEdges" style="stroke: rgb(68, 68, 68); stroke-opacity: 1; fill: rgb(255, 255, 255); fill-opacity: 1; stroke-width: 0px;" width="153" height="143" x="0" y="0"/><g class="scrollbox" transform="" clip-path="url(#legend8b70c0)"><g class="groups"><g class="traces" transform="translate(0,14.5)" style="opacity: 1;"><text class="legendtext" text-anchor="start" x="40" y="4.680000000000001" style="font-family: 'Open Sans', verdana, arial, sans-serif; font-size: 12px; fill: rgb(42, 63, 95); fill-opacity: 1; white-space: pre;">Main-class classifier</text><g class="layers" style="opacity: 1;"><g class="legendfill"/><g class="legendlines"/><g class="legendsymbols"><g class="legendpoints"><path class="scatterpts" transform="translate(20,0)" d="M5,0A5,5 0 1,1 0,-5A5,5 0 0,1 5,0Z" style="opacity: 1; stroke-width: 0px; fill: rgb(56, 21, 55); fill-opacity: 1;"/></g></g></g><rect class="legendtoggle" x="0" y="-9.5" width="147.359375" height="19" style="fill: rgb(0, 0, 0); fill-opacity: 0;"/></g><g class="traces" transform="translate(0,33.5)" style="opacity: 1;"><text class="legendtext" text-anchor="start" x="40" y="4.680000000000001" style="font-family: 'Open Sans', verdana, arial, sans-serif; font-size: 12px; fill: rgb(42, 63, 95); fill-opacity: 1; white-space: pre;">C classifier</text><g class="layers" style="opacity: 1;"><g class="legendfill"/><g class="legendlines"/><g class="legendsymbols"><g class="legendpoints"><path class="scatterpts" transform="translate(20,0)" d="M5,0A5,5 0 1,1 0,-5A5,5 0 0,1 5,0Z" style="opacity: 1; stroke-width: 0px; fill: rgb(14, 130, 18); fill-opacity: 1;"/></g></g></g><rect class="legendtoggle" x="0" y="-9.5" width="147.359375" height="19" style="fill: rgb(0, 0, 0); fill-opacity: 0;"/></g><g class="traces" transform="translate(0,52.5)" style="opacity: 1;"><text class="legendtext" text-anchor="start" x="40" y="4.680000000000001" style="font-family: 'Open Sans', verdana, arial, sans-serif; font-size: 12px; fill: rgb(42, 63, 95); fill-opacity: 1; white-space: pre;">D classifier</text><g class="layers" style="opacity: 1;"><g class="legendfill"/><g class="legendlines"/><g class="legendsymbols"><g class="legendpoints"><path class="scatterpts" transform="translate(20,0)" d="M5,0A5,5 0 1,1 0,-5A5,5 0 0,1 5,0Z" style="opacity: 1; stroke-width: 0px; fill: rgb(163, 59, 26); fill-opacity: 1;"/></g></g></g><rect class="legendtoggle" x="0" y="-9.5" width="147.359375" height="19" style="fill: rgb(0, 0, 0); fill-opacity: 0;"/></g><g class="traces" transform="translate(0,71.5)" style="opacity: 1;"><text class="legendtext" text-anchor="start" x="40" y="4.680000000000001" style="font-family: 'Open Sans', verdana, arial, sans-serif; font-size: 12px; fill: rgb(42, 63, 95); fill-opacity: 1; white-space: pre;">E classifier</text><g class="layers" style="opacity: 1;"><g class="legendfill"/><g class="legendlines"/><g class="legendsymbols"><g class="legendpoints"><path class="scatterpts" transform="translate(20,0)" d="M5,0A5,5 0 1,1 0,-5A5,5 0 0,1 5,0Z" style="opacity: 1; stroke-width: 0px; fill: rgb(70, 94, 133); fill-opacity: 1;"/></g></g></g><rect class="legendtoggle" x="0" y="-9.5" width="147.359375" height="19" style="fill: rgb(0, 0, 0); fill-opacity: 0;"/></g><g class="traces" transform="translate(0,90.5)" style="opacity: 1;"><text class="legendtext" text-anchor="start" x="40" y="4.680000000000001" style="font-family: 'Open Sans', verdana, arial, sans-serif; font-size: 12px; fill: rgb(42, 63, 95); fill-opacity: 1; white-space: pre;">Post-processing</text><g class="layers" style="opacity: 1;"><g class="legendfill"/><g class="legendlines"/><g class="legendsymbols"><g class="legendpoints"><path class="scatterpts" transform="translate(20,0)" d="M5,0A5,5 0 1,1 0,-5A5,5 0 0,1 5,0Z" style="opacity: 1; stroke-width: 0px; fill: rgb(51, 51, 51); fill-opacity: 1;"/></g></g></g><rect class="legendtoggle" x="0" y="-9.5" width="147.359375" height="19" style="fill: rgb(0, 0, 0); fill-opacity: 0;"/></g><g class="traces" transform="translate(0,109.5)" style="opacity: 1;"><text class="legendtext" text-anchor="start" x="40" y="4.680000000000001" style="font-family: 'Open Sans', verdana, arial, sans-serif; font-size: 12px; fill: rgb(42, 63, 95); fill-opacity: 1; white-space: pre;">OS NGD</text><g class="layers" style="opacity: 1;"><g class="legendfill"/><g class="legendlines"/><g class="legendsymbols"><g class="legendpoints"><path class="scatterpts" transform="translate(20,0)" d="M5,0A5,5 0 1,1 0,-5A5,5 0 0,1 5,0Z" style="opacity: 1; stroke-width: 0px; fill: rgb(204, 238, 170); fill-opacity: 1;"/></g></g></g><rect class="legendtoggle" x="0" y="-9.5" width="147.359375" height="19" style="fill: rgb(0, 0, 0); fill-opacity: 0;"/></g><g class="traces" transform="translate(0,128.5)" style="opacity: 1;"><text class="legendtext" text-anchor="start" x="40" y="4.680000000000001" style="font-family: 'Open Sans', verdana, arial, sans-serif; font-size: 12px; fill: rgb(42, 63, 95); fill-opacity: 1; white-space: pre;">Not estimated</text><g class="layers" style="opacity: 1;"><g class="legendfill"/><g class="legendlines"/><g class="legendsymbols"><g class="legendpoints"><path class="scatterpts" transform="translate(20,0)" d="M5,0A5,5 0 1,1 0,-5A5,5 0 0,1 5,0Z" style="opacity: 1; stroke-width: 0px; fill: rgb(204, 204, 204); fill-opacity: 1;"/></g></g></g><rect class="legendtoggle" x="0" y="-9.5" width="147.359375" height="19" style="fill: rgb(0, 0, 0); fill-opacity: 0;"/></g></g></g><rect class="scrollbar" rx="20" ry="3" width="0" height="0" style="fill: rgb(128, 139, 164); fill-opacity: 1;" x="0" y="0"/></g><g class="g-gtitle"/><g class="g-xtitle"/><g class="g-ytitle"/></g></svg>